<svg width="24" height="18" viewBox="0 0 24 18" fill="none" xmlns="http://www.w3.org/2000/svg">
<path d="M23.7531 12.2484C23.7264 12.1951 23.4752 11.7167 22.8831 11.3614C22.6746 11.237 22.4498 11.1423 22.2152 11.0799C22.2081 11.0134 22.1892 10.9488 22.1593 10.889C22.1326 10.8357 21.8815 10.3573 21.2894 10.002C20.7714 9.69125 19.881 9.41412 18.5624 9.83009V9.125C18.5619 8.70255 18.4031 8.29564 18.1174 7.98449C17.8316 7.67334 17.4397 7.48053 17.0188 7.44406C16.9168 6.80631 16.6438 6.20814 16.2289 5.71318C15.8139 5.21823 15.2726 4.845 14.6624 4.6332L16.1479 3.14773C16.253 3.04197 16.3121 2.89906 16.3124 2.75V1.25C16.3124 1.10082 16.2532 0.957742 16.1477 0.852252C16.0422 0.746763 15.8991 0.6875 15.7499 0.6875H11.2499C11.1008 0.6875 10.9577 0.746763 10.8522 0.852252C10.7467 0.957742 10.6874 1.10082 10.6874 1.25V2.75C10.6879 2.8991 10.7471 3.04201 10.8522 3.14773L12.3377 4.6332C11.7286 4.84462 11.188 5.21691 10.7733 5.71062C10.3587 6.20432 10.0853 6.80104 9.98226 7.4375H5.24995C5.1389 7.4375 5.03034 7.47036 4.93795 7.53195L0.437946 10.532C0.313812 10.6147 0.227634 10.7434 0.19837 10.8897C0.169105 11.0359 0.199152 11.1879 0.281899 11.312C0.364647 11.4361 0.493317 11.5223 0.639605 11.5516C0.785892 11.5808 0.937813 11.5508 1.06195 11.468L5.42029 8.5625H15.1116C15.0573 8.81111 14.9715 9.05179 14.8564 9.27875C14.4536 10.0585 13.7646 10.4375 12.7499 10.4375H8.99995C8.89548 10.4375 8.79308 10.4666 8.70422 10.5215C8.61536 10.5764 8.54355 10.655 8.49683 10.7484C8.45011 10.8419 8.43034 10.9465 8.43972 11.0505C8.4491 11.1546 8.48727 11.2539 8.54995 11.3375L10.7999 14.3375C10.8527 14.407 10.9207 14.4635 10.9987 14.5025C11.0767 14.5415 11.1627 14.5621 11.2499 14.5625H15.7499C15.8621 14.562 15.9716 14.5285 16.0649 14.4661C16.156 14.4058 18.3097 12.9896 20.4278 12.2836C21.4562 11.9408 22.0685 12.1467 22.4053 12.3871L16.3296 16.4375H0.749946C0.600762 16.4375 0.457688 16.4968 0.352199 16.6023C0.246709 16.7077 0.187446 16.8508 0.187446 17C0.187446 17.1492 0.246709 17.2923 0.352199 17.3977C0.457688 17.5032 0.600762 17.5625 0.749946 17.5625H16.4999C16.611 17.5625 16.7196 17.5296 16.8119 17.468L23.5619 12.968C23.676 12.892 23.7584 12.7769 23.7936 12.6444C23.8288 12.5119 23.8144 12.3711 23.7531 12.2484V12.2484ZM13.4999 4.20448L12.608 3.3125H14.3919L13.4999 4.20448ZM15.1874 1.8125V2.1875H11.8124V1.8125H15.1874ZM11.1287 7.4375C11.2552 6.90367 11.5581 6.42815 11.9884 6.08788C12.4188 5.74761 12.9513 5.56249 13.4999 5.56249C14.0486 5.56249 14.5811 5.74761 15.0115 6.08788C15.4418 6.42815 15.7447 6.90367 15.8712 7.4375H11.1287ZM11.5312 13.4375L10.1249 11.5625H12.7499C14.587 11.5625 15.465 10.5777 15.8781 9.75158C16.0621 9.37599 16.1898 8.97532 16.257 8.5625H16.8749C17.0241 8.56266 17.1671 8.62198 17.2725 8.72743C17.378 8.83289 17.4373 8.97587 17.4374 9.125V12.3641C16.5582 12.8241 15.8714 13.2521 15.5829 13.4375H11.5312ZM20.0721 11.2164C19.559 11.3899 19.0551 11.5895 18.5624 11.8146V11.0178C18.6536 10.9856 18.7446 10.954 18.8343 10.924C19.8625 10.5813 20.4749 10.787 20.8117 11.0275L20.8058 11.0314C20.5568 11.0737 20.3114 11.1356 20.0721 11.2164V11.2164Z" fill="#394042"/>
</svg>
