<svg width="24" height="19" viewBox="0 0 24 19" fill="none" xmlns="http://www.w3.org/2000/svg">
<path d="M12 0C6.10908 0 0 1.54547 0 4.7273V13.4546C0 16.6364 6.10908 18.1818 12 18.1818C17.8909 18.1818 24 16.6364 24 13.4546V4.72725C24 1.54542 17.8909 0 12 0ZM21.8182 13.4545C21.8182 14.5273 17.091 16 12 16C6.90905 16 2.1818 14.5273 2.1818 13.4545V11.951C4.48341 13.2032 8.28478 13.8182 12 13.8182C15.7152 13.8182 19.5166 13.2032 21.8182 11.9511V13.4545ZM21.8182 9.09089C21.8182 10.1636 17.091 11.6363 12 11.6363C6.90905 11.6363 2.1818 10.1636 2.1818 9.09089V7.58742C4.48341 8.83955 8.28478 9.45455 12 9.45455C15.7152 9.45455 19.5166 8.83955 21.8182 7.58742V9.09089ZM12 7.2727C6.90909 7.2727 2.1818 5.79998 2.1818 4.72725C2.1818 3.65452 6.90905 2.1818 12 2.1818C17.091 2.1818 21.8182 3.65452 21.8182 4.72725C21.8182 5.79998 17.0909 7.2727 12 7.2727Z" fill="black"/>
</svg>
