<svg width="20" height="20" viewBox="0 0 20 20" fill="none" xmlns="http://www.w3.org/2000/svg">
<path d="M18.9535 8.82738C19.6777 8.82738 19.9801 7.89691 19.3918 7.46801L10.441 0.957068C10.3132 0.863416 10.1588 0.812927 10.0004 0.812927C9.84193 0.812927 9.68759 0.863416 9.55976 0.957068L0.608983 7.46801C0.0207019 7.89457 0.323046 8.82738 1.04961 8.82738H2.50039V17.593H0.812889C0.709764 17.593 0.625389 17.6774 0.625389 17.7805V18.9993C0.625389 19.1024 0.709764 19.1868 0.812889 19.1868H19.1879C19.291 19.1868 19.3754 19.1024 19.3754 18.9993V17.7805C19.3754 17.6774 19.291 17.593 19.1879 17.593H17.5004V8.82738H18.9535ZM10.0004 2.60941L16.3543 7.23129H3.64648L10.0004 2.60941ZM4.18789 8.82738H6.93008V17.593H4.18789V8.82738ZM8.61758 8.82738H11.3598V17.593H8.61758V8.82738ZM15.8129 17.593H13.0473V8.82738H15.8129V17.593Z" fill="black"/>
</svg>
