<svg width="16" height="18" viewBox="0 0 16 18" fill="none" xmlns="http://www.w3.org/2000/svg">
<path d="M14.5631 13.4116C14.3549 12.8928 14.25 12.346 14.25 11.7869V7.75002C14.25 4.94971 12.3862 2.60148 9.84309 1.80923C9.69195 0.925893 8.92582 0.25 7.99998 0.25C7.07415 0.25 6.30802 0.925893 6.15688 1.80923C3.61379 2.60148 1.75002 4.94971 1.75002 7.75002V11.7869C1.75002 12.346 1.64503 12.8928 1.43691 13.4116L0.544543 15.643C0.467619 15.8359 0.491441 16.0532 0.60739 16.2253C0.723972 16.3974 0.917432 16.5 1.12497 16.5H5.87603C6.31916 17.2532 7.10956 17.75 7.99998 17.75C8.89041 17.75 9.68081 17.2532 10.1239 16.5H14.875C15.0825 16.5 15.276 16.3974 15.3925 16.2253C15.5085 16.0532 15.5323 15.8359 15.4554 15.643C15.4554 15.643 14.5631 13.4116 14.5631 13.4116ZM2.04783 15.25L2.59776 13.8755C2.86449 13.209 2.99997 12.5059 2.99997 11.7868V7.74997C2.99997 4.99239 5.24299 2.74996 7.99998 2.74996C10.757 2.74996 13 4.99239 13 7.74997V11.7868C13 12.5058 13.1354 13.209 13.4022 13.8755L13.9521 15.25H2.04783Z" fill="#232C31"/>
</svg>
