<svg width="18" height="18" viewBox="0 0 18 18" fill="none" xmlns="http://www.w3.org/2000/svg">
<path d="M2.81589 14.2594C2.93894 14.3438 3.41355 14.5793 3.81433 14.0731L6.52839 10.1074L9.40066 12.8777C9.55183 13.0219 9.75925 13.0992 9.97019 13.0746C10.1776 13.0535 10.3675 12.9445 10.4905 12.7723L15.2542 5.94141L15.4264 8.22657C15.4686 8.80665 16.0135 8.90157 16.1964 8.88751C16.5901 8.85587 16.8889 8.51485 16.8573 8.11758L16.555 4.09923C16.5268 3.70548 16.1823 3.40665 15.785 3.43829L11.7667 3.74063C11.3729 3.76876 11.0741 4.11329 11.1057 4.51055C11.1339 4.9043 11.4749 5.19962 11.8757 5.17149L14.1608 4.99923L9.79441 11.257L6.91511 8.47969C6.76394 8.33204 6.553 8.25821 6.34558 8.28282C6.13464 8.30391 5.9448 8.41641 5.82527 8.59219L2.62956 13.2609C2.40456 13.5879 2.48894 14.0344 2.81589 14.2594V14.2594Z" fill="#394042"/>
<path d="M16.8961 16.1789H1.82109V1.10391C1.82109 0.706641 1.50117 0.386719 1.10391 0.386719C0.706641 0.386719 0.386719 0.706641 0.386719 1.10391V16.8961C0.386719 17.2934 0.706641 17.6133 1.10391 17.6133H16.8961C17.2934 17.6133 17.6133 17.2934 17.6133 16.8961C17.6133 16.4988 17.2934 16.1789 16.8961 16.1789Z" fill="#394042"/>
</svg>
